<mxfile host="app.diagrams.net" modified="2021-03-10T11:16:16.240Z" agent="5.0 (Macintosh; Intel Mac OS X 10_15_6) AppleWebKit/537.36 (KHTML, like Gecko) Chrome/88.0.4324.192 Safari/537.36" etag="cUG0QxgxTgYAQm-UGFte" version="14.4.6" type="github">
  <diagram id="9dMJemvoK3SUcXrxnUzU" name="Page-1">
    <mxGraphModel dx="817" dy="515" grid="1" gridSize="10" guides="1" tooltips="1" connect="1" arrows="1" fold="1" page="1" pageScale="1" pageWidth="827" pageHeight="1169" math="0" shadow="0">
      <root>
        <mxCell id="0" />
        <mxCell id="1" parent="0" />
        <mxCell id="ToePM03Wq_4ef1Jd_eum-1" value="" style="shape=cylinder3;whiteSpace=wrap;html=1;boundedLbl=1;backgroundOutline=1;size=15;" vertex="1" parent="1">
          <mxGeometry x="550" y="120" width="60" height="80" as="geometry" />
        </mxCell>
        <mxCell id="ToePM03Wq_4ef1Jd_eum-2" value="" style="shape=table;html=1;whiteSpace=wrap;startSize=0;container=1;collapsible=0;childLayout=tableLayout;" vertex="1" parent="1">
          <mxGeometry x="310" y="290" width="180" height="120" as="geometry" />
        </mxCell>
        <mxCell id="ToePM03Wq_4ef1Jd_eum-3" value="" style="shape=partialRectangle;html=1;whiteSpace=wrap;collapsible=0;dropTarget=0;pointerEvents=0;fillColor=none;top=0;left=0;bottom=0;right=0;points=[[0,0.5],[1,0.5]];portConstraint=eastwest;" vertex="1" parent="ToePM03Wq_4ef1Jd_eum-2">
          <mxGeometry width="180" height="40" as="geometry" />
        </mxCell>
        <mxCell id="ToePM03Wq_4ef1Jd_eum-4" value="dsad" style="shape=partialRectangle;html=1;whiteSpace=wrap;connectable=0;fillColor=none;top=0;left=0;bottom=0;right=0;overflow=hidden;" vertex="1" parent="ToePM03Wq_4ef1Jd_eum-3">
          <mxGeometry width="60" height="40" as="geometry" />
        </mxCell>
        <mxCell id="ToePM03Wq_4ef1Jd_eum-5" value="dsa" style="shape=partialRectangle;html=1;whiteSpace=wrap;connectable=0;fillColor=none;top=0;left=0;bottom=0;right=0;overflow=hidden;" vertex="1" parent="ToePM03Wq_4ef1Jd_eum-3">
          <mxGeometry x="60" width="60" height="40" as="geometry" />
        </mxCell>
        <mxCell id="ToePM03Wq_4ef1Jd_eum-6" value="das" style="shape=partialRectangle;html=1;whiteSpace=wrap;connectable=0;fillColor=none;top=0;left=0;bottom=0;right=0;overflow=hidden;" vertex="1" parent="ToePM03Wq_4ef1Jd_eum-3">
          <mxGeometry x="120" width="60" height="40" as="geometry" />
        </mxCell>
        <mxCell id="ToePM03Wq_4ef1Jd_eum-7" value="" style="shape=partialRectangle;html=1;whiteSpace=wrap;collapsible=0;dropTarget=0;pointerEvents=0;fillColor=none;top=0;left=0;bottom=0;right=0;points=[[0,0.5],[1,0.5]];portConstraint=eastwest;" vertex="1" parent="ToePM03Wq_4ef1Jd_eum-2">
          <mxGeometry y="40" width="180" height="40" as="geometry" />
        </mxCell>
        <mxCell id="ToePM03Wq_4ef1Jd_eum-8" value="ads" style="shape=partialRectangle;html=1;whiteSpace=wrap;connectable=0;fillColor=none;top=0;left=0;bottom=0;right=0;overflow=hidden;" vertex="1" parent="ToePM03Wq_4ef1Jd_eum-7">
          <mxGeometry width="60" height="40" as="geometry" />
        </mxCell>
        <mxCell id="ToePM03Wq_4ef1Jd_eum-9" value="ads" style="shape=partialRectangle;html=1;whiteSpace=wrap;connectable=0;fillColor=none;top=0;left=0;bottom=0;right=0;overflow=hidden;" vertex="1" parent="ToePM03Wq_4ef1Jd_eum-7">
          <mxGeometry x="60" width="60" height="40" as="geometry" />
        </mxCell>
        <mxCell id="ToePM03Wq_4ef1Jd_eum-10" value="ads" style="shape=partialRectangle;html=1;whiteSpace=wrap;connectable=0;fillColor=none;top=0;left=0;bottom=0;right=0;overflow=hidden;" vertex="1" parent="ToePM03Wq_4ef1Jd_eum-7">
          <mxGeometry x="120" width="60" height="40" as="geometry" />
        </mxCell>
        <mxCell id="ToePM03Wq_4ef1Jd_eum-11" value="" style="shape=partialRectangle;html=1;whiteSpace=wrap;collapsible=0;dropTarget=0;pointerEvents=0;fillColor=none;top=0;left=0;bottom=0;right=0;points=[[0,0.5],[1,0.5]];portConstraint=eastwest;" vertex="1" parent="ToePM03Wq_4ef1Jd_eum-2">
          <mxGeometry y="80" width="180" height="40" as="geometry" />
        </mxCell>
        <mxCell id="ToePM03Wq_4ef1Jd_eum-12" value="ads" style="shape=partialRectangle;html=1;whiteSpace=wrap;connectable=0;fillColor=none;top=0;left=0;bottom=0;right=0;overflow=hidden;" vertex="1" parent="ToePM03Wq_4ef1Jd_eum-11">
          <mxGeometry width="60" height="40" as="geometry" />
        </mxCell>
        <mxCell id="ToePM03Wq_4ef1Jd_eum-13" value="ads" style="shape=partialRectangle;html=1;whiteSpace=wrap;connectable=0;fillColor=none;top=0;left=0;bottom=0;right=0;overflow=hidden;" vertex="1" parent="ToePM03Wq_4ef1Jd_eum-11">
          <mxGeometry x="60" width="60" height="40" as="geometry" />
        </mxCell>
        <mxCell id="ToePM03Wq_4ef1Jd_eum-14" value="ads" style="shape=partialRectangle;html=1;whiteSpace=wrap;connectable=0;fillColor=none;top=0;left=0;bottom=0;right=0;overflow=hidden;" vertex="1" parent="ToePM03Wq_4ef1Jd_eum-11">
          <mxGeometry x="120" width="60" height="40" as="geometry" />
        </mxCell>
        <mxCell id="ToePM03Wq_4ef1Jd_eum-15" value="dasdsadsadadasdsa" style="text;html=1;align=center;verticalAlign=middle;resizable=0;points=[];autosize=1;" vertex="1" parent="1">
          <mxGeometry x="335" y="180" width="130" height="20" as="geometry" />
        </mxCell>
      </root>
    </mxGraphModel>
  </diagram>
</mxfile>
